<svg xmlns="http://www.w3.org/2000/svg" width="148.125" height="132.63"><path d="M87.507 76.476c-5.732 5.733-8.508 8.464-9.939 15.414-.107.521-.7.519-.7 0v-8.516c0-5.46 4.865-10.454 10.66-16.248l4.66-4.661c6.527-6.528 8.104-14.091 2.913-18.589-.435-.375-.209-.837.359-.578 6.474 2.95 11.576 13.668.478 24.767l-8.431 8.411zm-10.663 21.89v8.575c0 .519.594.521.701 0 1.432-6.95 4.205-9.736 9.938-15.468l9.083-9.064c11.098-11.097 13.018-21.837 7.372-28.739-.375-.46-.78-.185-.534.371 3.73 8.443-5.217 17.395-9.478 21.656l-6.422 6.423c-5.795 5.793-10.66 10.785-10.66 16.246M52.229 70.78c-11.098 11.098-5.995 21.815.479 24.767.567.259.793-.202.359-.578-5.19-4.497-3.614-12.062 2.914-18.589l18.444-18.445c5.795-5.794 10.659-10.788 10.659-16.248V33.17c0-.518-.594-.52-.7 0-1.432 6.949-4.206 9.681-9.938 15.413L52.229 70.78zm32.877-44.086v-8.575c0-.518-.594-.52-.7 0-1.433 6.951-4.205 9.736-9.938 15.47L51.602 56.435c-11.097 11.099-13.018 21.838-7.374 28.74.376.461.781.185.537-.371-3.732-8.443 5.216-17.395 9.477-21.655l20.206-20.206c5.793-5.796 10.658-10.789 10.658-16.249M49.195 43.902c-9.545 9.544-10.875 19.641-8.837 26.227.172.559.657.597.652.01-.048-5.534 1.544-10.288 11.644-20.388l21.771-21.766c5.796-5.796 10.661-10.789 10.661-16.249V3.219c0-.518-.594-.52-.701 0-1.433 6.951-4.212 9.693-9.944 15.427L49.195 43.902zm13.347 69.082a.349.349 0 0 1-.349-.349v-4.942c0-.192.156-.348.349-.348l8.36.002a.35.35 0 0 0 .349-.349c-.022-4.44-3.368-7.456-16.778-5.122l-28.953 4.976S3.468 128.903 3.287 129.118c-.301.357-.07.817.396.776.402-.036 48.169-8.29 48.169-8.29 10.966-1.85 16.943 3.369 18.732 8.257.158.433.672.367.672-.046l.001-16.483a.35.35 0 0 0-.349-.348h-8.366zm34.557-10.518l-9.574 9.581c-5.795 5.795-10.66 10.788-10.66 16.249l.006 1.52c0 .413.514.479.671.046 1.789-4.888 7.767-10.106 18.731-8.257 0 0 47.768 8.254 48.169 8.29.467.041.697-.419.396-.776-.181-.215-22.231-22.266-22.231-22.266l-25.508-4.387zm10.71-33.75c-.173-.559-.657-.597-.652-.01.048 5.533-1.544 10.288-11.643 20.388l-7.989 7.982c-3.635 3.635-6.903 6.955-8.836 10.273h7.889l.933-.935 11.461-11.472c9.544-9.546 10.875-19.641 8.837-26.226M76.864 121.84c0 .519.593.521.701 0 .789-3.827 1.987-6.378 3.861-8.855l-4.214.003a.348.348 0 0 0-.349.348v8.504z"/><path d="M137.875 121.958c0-2.06 1.489-3.55 3.55-3.55 1.963 0 3.549 1.49 3.549 3.55 0 2.061-1.489 3.549-3.549 3.549-2.061 0-3.55-1.488-3.55-3.549m6.548 0c0-1.673-1.249-3.037-2.998-3.037-1.751 0-3.009 1.268-3.009 3.037 0 1.674 1.258 3.037 3.009 3.037 1.653 0 2.998-1.267 2.998-3.037m-4.323-2.108h1.237c1.055 0 1.528.417 1.528 1.248 0 .608-.367.947-.755 1.103l1.122 1.877h-.831l-.968-1.674h-.6v1.674h-.733v-4.228zm1.217 1.954c.503 0 .804-.28.804-.688 0-.454-.252-.647-.813-.647h-.475v1.335h.484z"/></svg>