<?xml version="1.0" encoding="utf-8"?>
<!-- Generator: Adobe Illustrator 15.0.0, SVG Export Plug-In . SVG Version: 6.00 Build 0)  -->
<!DOCTYPE svg PUBLIC "-//W3C//DTD SVG 1.1//EN" "http://www.w3.org/Graphics/SVG/1.1/DTD/svg11.dtd">
<svg version="1.1" id="Layer_1" xmlns="http://www.w3.org/2000/svg" xmlns:xlink="http://www.w3.org/1999/xlink" x="0px" y="0px"
	 width="148.125px" height="132.63px" viewBox="0 0 148.125 132.63" enable-background="new 0 0 148.125 132.63"
	 xml:space="preserve">
<g>
	<path d="M87.507,76.476c-5.732,5.733-8.508,8.464-9.939,15.414c-0.107,0.521-0.7,0.519-0.7,0v-8.516
		c0-5.46,4.865-10.454,10.66-16.248l4.66-4.661c6.527-6.528,8.104-14.091,2.913-18.589c-0.435-0.375-0.209-0.837,0.359-0.578
		c6.474,2.95,11.576,13.668,0.478,24.767L87.507,76.476z M76.844,98.366v8.575c0,0.519,0.594,0.521,0.701,0
		c1.432-6.95,4.205-9.736,9.938-15.468l9.083-9.064c11.098-11.097,13.018-21.837,7.372-28.739c-0.375-0.46-0.78-0.185-0.534,0.371
		c3.73,8.443-5.217,17.395-9.478,21.656l-6.422,6.423C81.709,87.913,76.844,92.905,76.844,98.366 M52.229,70.78
		c-11.098,11.098-5.995,21.815,0.479,24.767c0.567,0.259,0.793-0.202,0.359-0.578c-5.19-4.497-3.614-12.062,2.914-18.589
		l18.444-18.445c5.795-5.794,10.659-10.788,10.659-16.248V33.17c0-0.518-0.594-0.52-0.7,0c-1.432,6.949-4.206,9.681-9.938,15.413
		L52.229,70.78z M85.106,26.694v-8.575c0-0.518-0.594-0.52-0.7,0c-1.433,6.951-4.205,9.736-9.938,15.47L51.602,56.435
		c-11.097,11.099-13.018,21.838-7.374,28.74c0.376,0.461,0.781,0.185,0.537-0.371c-3.732-8.443,5.216-17.395,9.477-21.655
		l20.206-20.206C80.241,37.147,85.106,32.154,85.106,26.694 M49.195,43.902c-9.545,9.544-10.875,19.641-8.837,26.227
		c0.172,0.559,0.657,0.597,0.652,0.01c-0.048-5.534,1.544-10.288,11.644-20.388l21.771-21.766
		c5.796-5.796,10.661-10.789,10.661-16.249V3.219c0-0.518-0.594-0.52-0.701,0c-1.433,6.951-4.212,9.693-9.944,15.427L49.195,43.902z
		 M62.542,112.984c-0.193,0-0.349-0.156-0.349-0.349v-4.942c0-0.192,0.156-0.348,0.349-0.348l8.36,0.002
		c0.192,0,0.349-0.156,0.349-0.349c-0.022-4.44-3.368-7.456-16.778-5.122l-28.953,4.976c0,0-22.052,22.051-22.233,22.266
		c-0.301,0.357-0.07,0.817,0.396,0.776c0.402-0.036,48.169-8.29,48.169-8.29c10.966-1.85,16.943,3.369,18.732,8.257
		c0.158,0.433,0.672,0.367,0.672-0.046c0-0.298,0.001-16.483,0.001-16.483c0-0.191-0.156-0.348-0.349-0.348H62.542z M97.099,102.466
		l-9.574,9.581c-5.795,5.795-10.66,10.788-10.66,16.249l0.006,1.52c0,0.413,0.514,0.479,0.671,0.046
		c1.789-4.888,7.767-10.106,18.731-8.257c0,0,47.768,8.254,48.169,8.29c0.467,0.041,0.697-0.419,0.396-0.776
		c-0.181-0.215-22.231-22.266-22.231-22.266L97.099,102.466z M107.809,68.716c-0.173-0.559-0.657-0.597-0.652-0.01
		c0.048,5.533-1.544,10.288-11.643,20.388l-7.989,7.982c-3.635,3.635-6.903,6.955-8.836,10.273h7.889
		c0.304-0.304,0.613-0.613,0.933-0.935l11.461-11.472C108.516,85.396,109.847,75.301,107.809,68.716 M76.864,121.84
		c0,0.519,0.593,0.521,0.701,0c0.789-3.827,1.987-6.378,3.861-8.855l-4.214,0.003c-0.193,0-0.349,0.155-0.349,0.348V121.84z"/>
	<path d="M137.875,121.958c0-2.06,1.489-3.55,3.55-3.55c1.963,0,3.549,1.49,3.549,3.55c0,2.061-1.489,3.549-3.549,3.549
		C139.364,125.507,137.875,124.019,137.875,121.958 M144.423,121.958c0-1.673-1.249-3.037-2.998-3.037
		c-1.751,0-3.009,1.268-3.009,3.037c0,1.674,1.258,3.037,3.009,3.037C143.078,124.995,144.423,123.728,144.423,121.958
		 M140.1,119.85h1.237c1.055,0,1.528,0.417,1.528,1.248c0,0.608-0.367,0.947-0.755,1.103l1.122,1.877h-0.831l-0.968-1.674h-0.6
		v1.674H140.1V119.85z M141.317,121.804c0.503,0,0.804-0.28,0.804-0.688c0-0.454-0.252-0.647-0.813-0.647h-0.475v1.335H141.317z"/>
</g>
</svg>
